<svg id="visual" viewBox="0 0 900 600" width="900" height="600" xmlns="http://www.w3.org/2000/svg" xmlns:xlink="http://www.w3.org/1999/xlink" version="1.1"><path d="M0 402L18.8 407C37.7 412 75.3 422 112.8 419.3C150.3 416.7 187.7 401.3 225.2 400.8C262.7 400.3 300.3 414.7 337.8 413.8C375.3 413 412.7 397 450.2 407C487.7 417 525.3 453 562.8 454.8C600.3 456.7 637.7 424.3 675.2 409.5C712.7 394.7 750.3 397.3 787.8 395.7C825.3 394 862.7 388 881.3 385L900 382L900 601L881.3 601C862.7 601 825.3 601 787.8 601C750.3 601 712.7 601 675.2 601C637.7 601 600.3 601 562.8 601C525.3 601 487.7 601 450.2 601C412.7 601 375.3 601 337.8 601C300.3 601 262.7 601 225.2 601C187.7 601 150.3 601 112.8 601C75.3 601 37.7 601 18.8 601L0 601Z" fill="#e0e3fc"></path><path d="M0 424L18.8 423.7C37.7 423.3 75.3 422.7 112.8 437.8C150.3 453 187.7 484 225.2 488.2C262.7 492.3 300.3 469.7 337.8 471C375.3 472.3 412.7 497.7 450.2 494.5C487.7 491.3 525.3 459.7 562.8 460.5C600.3 461.3 637.7 494.7 675.2 499.2C712.7 503.7 750.3 479.3 787.8 472.3C825.3 465.3 862.7 475.7 881.3 480.8L900 486L900 601L881.3 601C862.7 601 825.3 601 787.8 601C750.3 601 712.7 601 675.2 601C637.7 601 600.3 601 562.8 601C525.3 601 487.7 601 450.2 601C412.7 601 375.3 601 337.8 601C300.3 601 262.7 601 225.2 601C187.7 601 150.3 601 112.8 601C75.3 601 37.7 601 18.8 601L0 601Z" fill="#bad1fa"></path><path d="M0 517L18.8 523.5C37.7 530 75.3 543 112.8 540.2C150.3 537.3 187.7 518.7 225.2 513.5C262.7 508.3 300.3 516.7 337.8 518.2C375.3 519.7 412.7 514.3 450.2 510.3C487.7 506.3 525.3 503.7 562.8 511.8C600.3 520 637.7 539 675.2 549.2C712.7 559.3 750.3 560.7 787.8 551C825.3 541.3 862.7 520.7 881.3 510.3L900 500L900 601L881.3 601C862.7 601 825.3 601 787.8 601C750.3 601 712.7 601 675.2 601C637.7 601 600.3 601 562.8 601C525.3 601 487.7 601 450.2 601C412.7 601 375.3 601 337.8 601C300.3 601 262.7 601 225.2 601C187.7 601 150.3 601 112.8 601C75.3 601 37.7 601 18.8 601L0 601Z" fill="#84c2f6"></path></svg>